# xmcd
#
# Track frame offsets: 
#        150
#        5484
#        13938
#        36141
#        59826
#        77481
#        79444
#        99522
#        110092
#        121100
#        130297
#        155451
#        175977
#        178188
#        191940
#        213979
#        214943
#        236605
#        253523
#        276631
#        277995
#        300235
#        326926
#        346103
#
# Disc length: 4672 seconds
#
# Revision: 1
# Processed by: cddbd v1.5.2PL0 Copyright (c) Steve Scherf et al.
# Submitted via: ExactAudioCopy v1.0b3
#
DISCID=67123e18
DTITLE=Max Herre - MTV Unplugged Kahedi Radio Show
DYEAR=2013
DGENRE=A Cappella
TTITLE0=Kahedi Radio Intro
TTITLE1=Hallo Welt!
TTITLE2=Esperanto (ft. Joy Denalane)
TTITLE3=1ste Liebe (ft. Joy Denalane)
TTITLE4=A-N-N-A Immer wenn es regnet (Radio Version)
TTITLE5=Kahedi Radio Skit 2
TTITLE6=Rap ist (ft. Afrob and Megaloh)
TTITLE7=Eimsbush bis 0711 (ft. Sammy DeLuxe)
TTITLE8=Einstürzen Neubauen (ft. Sammy DeLuxe)
TTITLE9=Alter Weg
TTITLE10=Wolke 7 (ft. Philipp Poisel)
TTITLE11=Berlin - Tel Aviv (ft. Sophie Hunger)
TTITLE12=Kahedi Radio Skit 3
TTITLE13=Tabula Rasa Pt. 1 (ft. Gentleman and Sékou)
TTITLE14=Tabula Rasa Pt. 2 (ft. Gentleman, Sékou, Afrob and Joy Denalane
TTITLE14=)
TTITLE15=Kahedi Radio Skit 4
TTITLE16=Vida (ft. Gregory Porter)
TTITLE17=Fühlt sich wie Fliegen an
TTITLE18=Jeder Tag zuviel (ft. Patrice and Joy Denalane)
TTITLE19=Kahedi Radio Interlude 3
TTITLE20=Mit dir (ft. Joy Denalane)
TTITLE21=Wenn der Vorhang fällt (ft. Don Philipe, Megaloh, Afrob and Joy
TTITLE21=Denalane)
TTITLE22=So wundervoll (ft. Gregory Porter, Radio Version)
TTITLE23=Kahedi Radio Outro
EXTD=
EXTT0=
EXTT1=
EXTT2=
EXTT3=
EXTT4=
EXTT5=
EXTT6=
EXTT7=
EXTT8=
EXTT9=
EXTT10=
EXTT11=
EXTT12=
EXTT13=
EXTT14=
EXTT15=
EXTT16=
EXTT17=
EXTT18=
EXTT19=
EXTT20=
EXTT21=
EXTT22=
EXTT23=
PLAYORDER=
